<?xml version="1.0" encoding="UTF-8"?>
<svg width="54px" height="54px" viewBox="0 0 54 54" version="1.1" xmlns="http://www.w3.org/2000/svg" xmlns:xlink="http://www.w3.org/1999/xlink">
    <title>logo-mobile</title>
    <g id="Page-1" stroke="none" stroke-width="1" fill="none" fill-rule="evenodd">
        <g id="logo-mobile">
            <path fill="#2f2f41" d="M 11.22 0.616 L 11.22 1.496 Q 9.924 1.534 9.172 1.754 A 3.248 3.248 0 0 0 8.954 1.826 Q 8.184 2.112 7.92 2.882 A 3.605 3.605 0 0 0 7.792 3.383 Q 7.689 3.933 7.664 4.735 A 17.417 17.417 0 0 0 7.656 5.28 L 7.656 27.104 A 15.27 15.27 0 0 0 7.677 27.932 Q 7.719 28.701 7.845 29.217 A 3.339 3.339 0 0 0 7.92 29.48 A 1.704 1.704 0 0 0 8.218 30.033 Q 8.497 30.37 8.954 30.514 Q 9.637 30.729 10.891 30.753 A 17.014 17.014 0 0 0 11.22 30.756 L 14.432 30.756 A 15.966 15.966 0 0 0 15.763 30.704 Q 16.946 30.605 17.798 30.316 Q 19.096 29.876 19.866 28.93 Q 20.533 28.11 20.92 26.811 A 9.656 9.656 0 0 0 21.032 26.4 Q 21.335 25.187 21.535 23.562 A 39.16 39.16 0 0 0 21.648 22.528 L 22.66 22.528 Q 22.534 23.83 22.528 25.933 A 74.245 74.245 0 0 0 22.528 26.136 Q 22.528 26.972 22.594 28.534 Q 22.66 30.096 22.836 31.768 A 136.382 136.382 0 0 0 20.528 31.698 Q 19.309 31.671 17.957 31.66 A 223.319 223.319 0 0 0 17.776 31.658 Q 14.96 31.636 12.76 31.636 L 10.274 31.636 Q 8.756 31.636 6.996 31.658 Q 5.236 31.68 3.432 31.702 Q 1.628 31.724 0 31.768 L 0 30.888 Q 1.496 30.8 2.266 30.536 A 1.564 1.564 0 0 0 3.226 29.67 A 2.002 2.002 0 0 0 3.3 29.48 A 3.926 3.926 0 0 0 3.433 28.94 Q 3.535 28.379 3.558 27.581 A 16.861 16.861 0 0 0 3.564 27.104 L 3.564 5.28 Q 3.564 3.966 3.392 3.211 A 3.227 3.227 0 0 0 3.3 2.882 A 1.687 1.687 0 0 0 2.877 2.201 A 1.742 1.742 0 0 0 2.266 1.826 A 3.909 3.909 0 0 0 1.718 1.672 Q 1.031 1.526 0 1.496 L 0 0.616 Q 0.827 0.655 2.111 0.695 A 250.597 250.597 0 0 0 2.42 0.704 Q 3.916 0.748 5.632 0.748 Q 7.172 0.748 8.69 0.704 Q 10.171 0.661 11.171 0.618 A 95.072 95.072 0 0 0 11.22 0.616 Z" id="0"/>
            <path fill="#E5261F" d="M 50.468 0.616 L 51.48 0.616 A 81.761 81.761 0 0 0 51.42 1.936 Q 51.398 2.527 51.38 3.187 A 164.283 164.283 0 0 0 51.348 4.576 Q 51.309 6.662 51.304 9.945 A 625.968 625.968 0 0 0 51.304 10.736 L 50.292 10.736 A 42.546 42.546 0 0 0 49.571 7.279 A 39.2 39.2 0 0 0 49.544 7.172 A 8.058 8.058 0 0 0 48.82 5.305 A 6.922 6.922 0 0 0 48.092 4.224 A 8.252 8.252 0 0 0 45.375 1.994 A 9.924 9.924 0 0 0 44.748 1.694 Q 42.68 0.792 40.48 0.792 A 7.712 7.712 0 0 0 37.474 1.373 A 7.4 7.4 0 0 0 36.498 1.87 A 8.772 8.772 0 0 0 34.287 3.799 A 11.121 11.121 0 0 0 33.44 4.972 A 14.094 14.094 0 0 0 32.222 7.429 A 19.109 19.109 0 0 0 31.482 9.834 A 23.865 23.865 0 0 0 30.95 13.054 A 32.273 32.273 0 0 0 30.8 16.236 A 39.093 39.093 0 0 0 30.996 20.303 Q 31.508 25.175 33.352 27.83 Q 35.904 31.504 41.272 31.504 A 9.154 9.154 0 0 0 42.578 31.416 Q 43.268 31.316 43.856 31.105 A 5.494 5.494 0 0 0 44.022 31.042 A 15.764 15.764 0 0 0 44.701 30.756 Q 45.045 30.6 45.33 30.448 A 6.307 6.307 0 0 0 45.848 30.14 Q 46.684 29.568 46.904 29.062 A 2.297 2.297 0 0 0 47.038 28.636 Q 47.124 28.243 47.124 27.72 L 47.124 23.496 A 14.778 14.778 0 0 0 47.096 22.554 Q 47.025 21.445 46.772 20.812 Q 46.42 19.932 45.474 19.624 A 5.215 5.215 0 0 0 44.833 19.465 Q 44.138 19.333 43.147 19.288 A 21.746 21.746 0 0 0 42.68 19.272 L 42.68 18.392 A 41.14 41.14 0 0 0 43.311 18.422 Q 43.59 18.433 43.894 18.442 A 72.003 72.003 0 0 0 44.528 18.458 Q 45.584 18.48 46.75 18.502 Q 47.916 18.524 48.884 18.524 A 82.517 82.517 0 0 0 50.244 18.513 Q 50.91 18.502 51.502 18.48 Q 52.668 18.436 53.46 18.392 L 53.46 19.272 A 6.282 6.282 0 0 0 52.954 19.314 Q 52.445 19.379 52.117 19.526 A 1.571 1.571 0 0 0 52.008 19.58 Q 51.616 19.794 51.44 20.355 A 2.611 2.611 0 0 0 51.37 20.636 A 6.174 6.174 0 0 0 51.296 21.148 Q 51.241 21.655 51.224 22.367 A 28.782 28.782 0 0 0 51.216 23.056 L 51.216 31.768 L 50.336 31.768 Q 50.293 31.043 50.024 30.195 A 8.947 8.947 0 0 0 50.006 30.14 A 2.4 2.4 0 0 0 49.867 29.797 Q 49.782 29.629 49.68 29.514 A 0.689 0.689 0 0 0 49.148 29.26 A 1.124 1.124 0 0 0 48.744 29.337 A 1.38 1.38 0 0 0 48.62 29.392 Q 48.403 29.5 47.92 29.846 A 22.537 22.537 0 0 0 47.696 30.008 Q 46.244 31.108 44.616 31.746 A 8.921 8.921 0 0 1 42.737 32.244 Q 41.843 32.384 40.832 32.384 A 18.376 18.376 0 0 1 37.115 32.026 A 13.464 13.464 0 0 1 33.066 30.514 Q 29.832 28.644 28.116 25.124 Q 26.452 21.71 26.402 17.014 A 27.451 27.451 0 0 1 26.4 16.72 A 24.113 24.113 0 0 1 26.754 12.485 Q 27.207 9.946 28.24 7.849 A 14.928 14.928 0 0 1 28.248 7.832 A 15.2 15.2 0 0 1 30.752 4.161 A 13.224 13.224 0 0 1 33.286 2.046 A 12.998 12.998 0 0 1 39.746 0.021 A 15.842 15.842 0 0 1 40.568 0 Q 43.428 0 45.188 0.858 Q 46.948 1.716 48.488 2.86 A 4.355 4.355 0 0 0 48.742 3.042 Q 48.99 3.206 49.175 3.266 A 0.636 0.636 0 0 0 49.368 3.3 A 0.589 0.589 0 0 0 49.835 3.038 Q 50.198 2.575 50.386 1.293 A 14.263 14.263 0 0 0 50.468 0.616 Z" id="1"/>
        </g>
    </g>
</svg>